<?xml version="1.0" encoding="UTF-8" standalone="no"?>
<!DOCTYPE svg PUBLIC "-//W3C//DTD SVG 1.1//EN"
 "http://www.w3.org/Graphics/SVG/1.1/DTD/svg11.dtd">
<!-- Generated by graphviz version 2.38.0 (20140413.2041)
 -->
<!-- Title: %3 Pages: 1 -->
<svg width="94pt" height="260pt"
 viewBox="0.00 0.00 94.00 260.00" xmlns="http://www.w3.org/2000/svg" xmlns:xlink="http://www.w3.org/1999/xlink">
<g id="graph0" class="graph" transform="scale(1 1) rotate(0) translate(4 256)">
<title>%3</title>
<polygon fill="white" stroke="none" points="-4,4 -4,-256 90,-256 90,4 -4,4"/>
<!-- A -->
<g id="node1" class="node"><title>A</title>
<ellipse fill="none" stroke="black" cx="59" cy="-234" rx="27" ry="18"/>
<text text-anchor="middle" x="59" y="-229.8" font-family="Times,serif" font-size="14.00">A</text>
</g>
<!-- B -->
<g id="node2" class="node"><title>B</title>
<ellipse fill="none" stroke="black" cx="27" cy="-162" rx="27" ry="18"/>
<text text-anchor="middle" x="27" y="-157.8" font-family="Times,serif" font-size="14.00">B</text>
</g>
<!-- A&#45;&#45;B -->
<g id="edge1" class="edge"><title>A&#45;&#45;B</title>
<path fill="none" stroke="black" d="M46.3781,-217.811C39.9531,-206.713 32.9953,-191.653 28.932,-180.127"/>
</g>
<!-- C -->
<g id="node3" class="node"><title>C</title>
<ellipse fill="none" stroke="black" cx="59" cy="-18" rx="27" ry="18"/>
<text text-anchor="middle" x="59" y="-13.8" font-family="Times,serif" font-size="14.00">C</text>
</g>
<!-- A&#45;&#45;C -->
<g id="edge2" class="edge"><title>A&#45;&#45;C</title>
<path fill="none" stroke="black" d="M52.8172,-216.309C52.4922,-205.882 53.5413,-192.172 54,-180 55.8075,-132.034 55.8075,-119.966 54,-72 53.5413,-59.8283 52.4922,-46.1176 52.8172,-35.691"/>
</g>
<!-- B&#45;&#45;A -->
<g id="edge3" class="edge"><title>B&#45;&#45;A</title>
<path fill="none" stroke="black" d="M39.6297,-178.202C46.0198,-189.243 52.9354,-204.199 57.0056,-215.697"/>
</g>
<!-- D -->
<g id="node4" class="node"><title>D</title>
<ellipse fill="none" stroke="black" cx="27" cy="-90" rx="27" ry="18"/>
<text text-anchor="middle" x="27" y="-85.8" font-family="Times,serif" font-size="14.00">D</text>
</g>
<!-- B&#45;&#45;D -->
<g id="edge4" class="edge"><title>B&#45;&#45;D</title>
<path fill="none" stroke="black" d="M21.1601,-144.411C19.96,-133.414 19.9468,-119.027 21.1206,-107.956"/>
</g>
<!-- C&#45;&#45;A -->
<g id="edge5" class="edge"><title>C&#45;&#45;A</title>
<path fill="none" stroke="black" d="M68.2515,-35.2194C70.4603,-45.7017 71.5344,-59.6438 72,-72 73.8075,-119.966 73.8075,-132.034 72,-180 71.5344,-192.356 70.4603,-206.298 68.2515,-216.781"/>
</g>
<!-- C&#45;&#45;D -->
<g id="edge6" class="edge"><title>C&#45;&#45;D</title>
<path fill="none" stroke="black" d="M57.068,-36.1267C53.0047,-47.6526 46.0469,-62.7131 39.6219,-73.811"/>
</g>
<!-- D&#45;&#45;B -->
<g id="edge7" class="edge"><title>D&#45;&#45;B</title>
<path fill="none" stroke="black" d="M32.8794,-107.956C34.0532,-119.027 34.04,-133.414 32.8399,-144.411"/>
</g>
<!-- D&#45;&#45;C -->
<g id="edge8" class="edge"><title>D&#45;&#45;C</title>
<path fill="none" stroke="black" d="M28.9944,-71.6966C33.0646,-60.1985 39.9802,-45.2425 46.3703,-34.2024"/>
</g>
</g>
</svg>
